<?xml version="1.0" encoding="UTF-8"?>
<svg width="200px" height="100px" viewBox="0 0 200 100" version="1.1" xmlns="http://www.w3.org/2000/svg" xmlns:xlink="http://www.w3.org/1999/xlink">
    <!-- Generator: Sketch 47.1 (45422) - http://www.bohemiancoding.com/sketch -->
    <title>Group</title>
    <desc>Created with Sketch.</desc>
    <defs>
        <linearGradient x1="50%" y1="100%" x2="50%" y2="0%" id="linearGradient-1">
            <stop stop-color="#005AB2" offset="0%"></stop>
            <stop stop-color="#79F0F0" offset="100%"></stop>
        </linearGradient>
        <path d="M92.9834135,0.186254424 L77.1563672,77.8711485 L76.6998206,77.8711485 L60.0358715,0 L47.0242948,0 L30.3603457,77.8711485 L29.9037991,77.8711485 L14.0388065,0 L0,0 L23.3980108,100 L36.7519974,100 L53.3018099,22.8291317 L53.7583564,22.8291317 L70.3081689,100 L83.5480189,100 L99.982822,30.1007994 L116.337844,100 L129.691831,100 L146.241644,22.8291317 L146.69819,22.8291317 L163.248003,100 L176.487853,100 L200,0 L185.961194,0 L170.096201,77.8711485 L169.639654,77.8711485 L152.975705,0 L139.964128,0 L123.300179,77.8711485 L122.843633,77.8711485 L107.016488,0.185770017 L107.060166,0 L100,0 L92.9398337,0 L92.9834135,0.186254424 Z" id="path-2"></path>
    </defs>
    <g id="Page-1" stroke="none" stroke-width="1" fill="none" fill-rule="evenodd">
        <g id="Artboard" transform="translate(-150.000000, -200.000000)">
            <g id="Group" transform="translate(150.000000, 200.000000)">
                <mask id="mask-3" fill="white">
                    <use xlink:href="#path-2"></use>
                </mask>
                <use id="WW" fill="url(#linearGradient-1)" xlink:href="#path-2"></use>
                <path d="M14,0.00443815334 L48.7586238,0.00443815334 L71.0566557,102 L34.7833706,102 L14,0.00443815334 Z M106.943344,-1 L141.701968,-1 L164,100.995562 L127.726715,100.995562 L106.943344,-1 Z M60.1170137,-0.26548967 L93.1473136,-0.26548967 L116.734643,100.995562 L81.5283771,100.995562 L60.1170137,-0.26548967 Z" id="Combined-Shape" fill-opacity="0.2" fill="#000000" mask="url(#mask-3)"></path>
            </g>
        </g>
    </g>
</svg>